<?xml version="1.0" encoding="utf-8" standalone="no"?>
<!DOCTYPE svg PUBLIC "-//W3C//DTD SVG 1.1//EN"
  "http://www.w3.org/Graphics/SVG/1.1/DTD/svg11.dtd">
<!-- Created with matplotlib (http://matplotlib.org/) -->
<svg height="396pt" version="1.1" viewBox="0 0 576 396" width="576pt" xmlns="http://www.w3.org/2000/svg" xmlns:xlink="http://www.w3.org/1999/xlink">
 <defs>
  <style type="text/css">
*{stroke-linecap:butt;stroke-linejoin:round;}
  </style>
 </defs>
 <g id="figure_1">
  <g id="patch_1">
   <path d="
M0 396
L576 396
L576 0
L0 0
z
" style="fill:#ffffff;stroke:#ffffff;stroke-width:4;"/>
   <path d="
M0 396
L576 396
L576 0
L0 0
z
" style="fill:#ffffff;"/>
  </g>
  <g id="axes_1">
   <g id="patch_2">
    <path d="
M44.2388 355.291
L558.096 355.291
L558.096 20.4145
L44.2388 20.4145
z
" style="fill:#ffffff;stroke:#ffffff;stroke-width:4;"/>
    <path d="
M44.2388 355.291
L558.096 355.291
L558.096 20.4145
L44.2388 20.4145
z
" style="fill:#ffffff;"/>
   </g>
   <g id="matplotlib.axis_1">
    <g id="xtick_1">
     <g id="line2d_1">
      <path d="
M44.2387 355.291
L44.2387 363.291" style="fill:#262626;stroke:#ffffff;stroke-width:4;"/>
      <path d="
M44.2387 355.291
L44.2387 363.291" style="fill:#262626;stroke:#262626;stroke-width:3.0;"/>
     </g>
     <g id="line2d_2">
      <path d="
M44.2387 20.4145
L44.2387 12.4145" style="fill:#262626;stroke:#ffffff;stroke-width:4;"/>
      <path d="
M44.2387 20.4145
L44.2387 12.4145" style="fill:#262626;stroke:#262626;stroke-width:3.0;"/>
     </g>
     <g id="text_1">
      <path d="
M42.8356 375.832
Q42.1716 375.899 40.4716 375.899
Q40.0622 375.899 40.0622 375.519
Q40.0622 375.138 40.4716 375.138
Q40.8575 375.138 41.6294 375.103
Q42.4012 375.069 42.7872 375.069
Q43.2216 375.069 43.2216 375.45
Q43.2216 375.786 42.8356 375.832
M48.3929 376.016
L48.3929 377.824
Q48.3929 378.277 47.9475 378.277
Q47.4304 378.277 47.4304 377.569
Q47.4304 377.482 47.4397 377.321
Q47.4491 377.16 47.4491 377.1
L47.4444 375.993
L45.2913 375.938
Q44.6225 375.938 44.3632 375.894
Q43.9194 375.821 43.9194 375.547
Q43.9194 375.328 44.1882 374.991
L44.6085 374.493
L47.01 370.988
Q47.3382 370.533 47.8397 370.533
Q48.3929 370.533 48.3929 371.011
L48.3929 375.069
Q48.4757 375.064 48.5929 375.064
Q49.4913 375.064 49.4913 375.547
Q49.4913 375.899 49.1194 375.993
Q48.9538 376.036 48.3929 376.016
M47.4444 371.886
Q46.1413 373.966 45.4085 375
L47.4444 375.05
z
" style="fill:#262626;stroke:#ffffff;stroke-width:4;"/>
      <path d="
M42.8356 375.832
Q42.1716 375.899 40.4716 375.899
Q40.0622 375.899 40.0622 375.519
Q40.0622 375.138 40.4716 375.138
Q40.8575 375.138 41.6294 375.103
Q42.4012 375.069 42.7872 375.069
Q43.2216 375.069 43.2216 375.45
Q43.2216 375.786 42.8356 375.832
M48.3929 376.016
L48.3929 377.824
Q48.3929 378.277 47.9475 378.277
Q47.4304 378.277 47.4304 377.569
Q47.4304 377.482 47.4397 377.321
Q47.4491 377.16 47.4491 377.1
L47.4444 375.993
L45.2913 375.938
Q44.6225 375.938 44.3632 375.894
Q43.9194 375.821 43.9194 375.547
Q43.9194 375.328 44.1882 374.991
L44.6085 374.493
L47.01 370.988
Q47.3382 370.533 47.8397 370.533
Q48.3929 370.533 48.3929 371.011
L48.3929 375.069
Q48.4757 375.064 48.5929 375.064
Q49.4913 375.064 49.4913 375.547
Q49.4913 375.899 49.1194 375.993
Q48.9538 376.036 48.3929 376.016
M47.4444 371.886
Q46.1413 373.966 45.4085 375
L47.4444 375.05
z
" style="fill:#262626;"/>
     </g>
    </g>
    <g id="xtick_2">
     <g id="line2d_3">
      <path d="
M108.471 355.291
L108.471 363.291" style="fill:#262626;stroke:#ffffff;stroke-width:4;"/>
      <path d="
M108.471 355.291
L108.471 363.291" style="fill:#262626;stroke:#262626;stroke-width:3.0;"/>
     </g>
     <g id="line2d_4">
      <path d="
M108.471 20.4145
L108.471 12.4145" style="fill:#262626;stroke:#ffffff;stroke-width:4;"/>
      <path d="
M108.471 20.4145
L108.471 12.4145" style="fill:#262626;stroke:#262626;stroke-width:3.0;"/>
     </g>
     <g id="text_2">
      <path d="
M107.326 375.832
Q106.661 375.899 104.961 375.899
Q104.552 375.899 104.552 375.519
Q104.552 375.138 104.961 375.138
Q105.347 375.138 106.119 375.103
Q106.891 375.069 107.277 375.069
Q107.711 375.069 107.711 375.45
Q107.711 375.786 107.326 375.832
M111.13 378.375
Q110.392 378.375 109.806 378.067
Q109.147 377.711 108.917 377.066
Q108.887 376.978 108.887 376.896
Q108.887 376.7 109.036 376.571
Q109.186 376.441 109.381 376.441
Q109.577 376.441 109.719 376.622
L109.942 376.958
Q110.119 377.199 110.416 377.319
Q110.714 377.438 111.13 377.438
Q111.661 377.438 112.062 377.105
Q112.486 376.753 112.486 376.246
Q112.486 375.508 111.945 375.069
Q111.466 374.688 110.675 374.605
Q110.133 374.552 110.133 374.166
Q110.133 373.878 110.558 373.727
L111.725 373.438
Q112.062 373.316 112.233 373.11
Q112.403 372.902 112.408 372.603
Q112.419 372.174 112.077 371.91
Q111.72 371.636 111.075 371.636
Q110.744 371.636 110.431 371.797
L109.88 372.144
Q109.719 372.247 109.62 372.247
Q109.425 372.247 109.286 372.099
Q109.147 371.949 109.147 371.758
Q109.147 371.372 109.894 371.016
Q110.544 370.699 110.962 370.699
Q112.012 370.699 112.628 371.163
Q113.287 371.661 113.287 372.583
Q113.287 373.732 112.359 374.097
Q112.277 374.132 112.169 374.166
Q112.819 374.405 113.141 374.882
Q113.462 375.357 113.462 376.071
Q113.462 377.032 112.784 377.703
Q112.106 378.375 111.13 378.375" style="fill:#262626;stroke:#ffffff;stroke-width:4;"/>
      <path d="
M107.326 375.832
Q106.661 375.899 104.961 375.899
Q104.552 375.899 104.552 375.519
Q104.552 375.138 104.961 375.138
Q105.347 375.138 106.119 375.103
Q106.891 375.069 107.277 375.069
Q107.711 375.069 107.711 375.45
Q107.711 375.786 107.326 375.832
M111.13 378.375
Q110.392 378.375 109.806 378.067
Q109.147 377.711 108.917 377.066
Q108.887 376.978 108.887 376.896
Q108.887 376.7 109.036 376.571
Q109.186 376.441 109.381 376.441
Q109.577 376.441 109.719 376.622
L109.942 376.958
Q110.119 377.199 110.416 377.319
Q110.714 377.438 111.13 377.438
Q111.661 377.438 112.062 377.105
Q112.486 376.753 112.486 376.246
Q112.486 375.508 111.945 375.069
Q111.466 374.688 110.675 374.605
Q110.133 374.552 110.133 374.166
Q110.133 373.878 110.558 373.727
L111.725 373.438
Q112.062 373.316 112.233 373.11
Q112.403 372.902 112.408 372.603
Q112.419 372.174 112.077 371.91
Q111.72 371.636 111.075 371.636
Q110.744 371.636 110.431 371.797
L109.88 372.144
Q109.719 372.247 109.62 372.247
Q109.425 372.247 109.286 372.099
Q109.147 371.949 109.147 371.758
Q109.147 371.372 109.894 371.016
Q110.544 370.699 110.962 370.699
Q112.012 370.699 112.628 371.163
Q113.287 371.661 113.287 372.583
Q113.287 373.732 112.359 374.097
Q112.277 374.132 112.169 374.166
Q112.819 374.405 113.141 374.882
Q113.462 375.357 113.462 376.071
Q113.462 377.032 112.784 377.703
Q112.106 378.375 111.13 378.375" style="fill:#262626;"/>
     </g>
    </g>
    <g id="xtick_3">
     <g id="line2d_5">
      <path d="
M172.703 355.291
L172.703 363.291" style="fill:#262626;stroke:#ffffff;stroke-width:4;"/>
      <path d="
M172.703 355.291
L172.703 363.291" style="fill:#262626;stroke:#262626;stroke-width:3.0;"/>
     </g>
     <g id="line2d_6">
      <path d="
M172.703 20.4145
L172.703 12.4145" style="fill:#262626;stroke:#ffffff;stroke-width:4;"/>
      <path d="
M172.703 20.4145
L172.703 12.4145" style="fill:#262626;stroke:#262626;stroke-width:3.0;"/>
     </g>
     <g id="text_3">
      <path d="
M171.519 375.832
Q170.855 375.899 169.155 375.899
Q168.745 375.899 168.745 375.519
Q168.745 375.138 169.155 375.138
Q169.54 375.138 170.312 375.103
Q171.084 375.069 171.47 375.069
Q171.905 375.069 171.905 375.45
Q171.905 375.786 171.519 375.832
M177.29 378.16
Q177.168 378.16 176.946 378.085
Q176.724 378.008 176.607 378.008
Q176.357 378.008 175.859 378.038
Q175.362 378.067 175.107 378.067
Q174.916 378.067 174.543 378.116
Q174.17 378.164 173.979 378.164
Q173.926 378.164 173.823 378.146
Q173.721 378.125 173.666 378.125
Q173.331 378.125 173.227 377.799
Q173.17 377.628 173.17 377.213
Q173.17 376.075 173.788 375.382
Q174.073 375.064 175.318 374.21
Q176.015 373.732 176.249 373.463
Q176.67 372.994 176.67 372.364
Q176.67 372.052 176.265 371.808
Q175.909 371.588 175.566 371.588
Q175.116 371.588 174.712 371.847
L174.013 372.394
Q173.804 372.56 173.677 372.56
Q173.174 372.56 173.174 372.16
Q173.174 371.93 173.359 371.763
Q173.931 371.227 174.351 370.988
Q174.941 370.65 175.566 370.65
Q176.357 370.65 176.977 371.08
Q177.671 371.563 177.671 372.321
Q177.671 372.817 177.529 373.238
Q177.388 373.658 177.099 374.005
Q176.734 374.444 175.859 374.986
Q174.941 375.563 174.654 375.86
Q174.112 376.422 174.121 377.222
L175.127 377.13
Q176.162 377.071 176.607 377.071
Q176.977 377.071 177.31 377.199
Q177.749 377.369 177.749 377.672
Q177.749 377.863 177.616 378.011
Q177.485 378.16 177.29 378.16" style="fill:#262626;stroke:#ffffff;stroke-width:4;"/>
      <path d="
M171.519 375.832
Q170.855 375.899 169.155 375.899
Q168.745 375.899 168.745 375.519
Q168.745 375.138 169.155 375.138
Q169.54 375.138 170.312 375.103
Q171.084 375.069 171.47 375.069
Q171.905 375.069 171.905 375.45
Q171.905 375.786 171.519 375.832
M177.29 378.16
Q177.168 378.16 176.946 378.085
Q176.724 378.008 176.607 378.008
Q176.357 378.008 175.859 378.038
Q175.362 378.067 175.107 378.067
Q174.916 378.067 174.543 378.116
Q174.17 378.164 173.979 378.164
Q173.926 378.164 173.823 378.146
Q173.721 378.125 173.666 378.125
Q173.331 378.125 173.227 377.799
Q173.17 377.628 173.17 377.213
Q173.17 376.075 173.788 375.382
Q174.073 375.064 175.318 374.21
Q176.015 373.732 176.249 373.463
Q176.67 372.994 176.67 372.364
Q176.67 372.052 176.265 371.808
Q175.909 371.588 175.566 371.588
Q175.116 371.588 174.712 371.847
L174.013 372.394
Q173.804 372.56 173.677 372.56
Q173.174 372.56 173.174 372.16
Q173.174 371.93 173.359 371.763
Q173.931 371.227 174.351 370.988
Q174.941 370.65 175.566 370.65
Q176.357 370.65 176.977 371.08
Q177.671 371.563 177.671 372.321
Q177.671 372.817 177.529 373.238
Q177.388 373.658 177.099 374.005
Q176.734 374.444 175.859 374.986
Q174.941 375.563 174.654 375.86
Q174.112 376.422 174.121 377.222
L175.127 377.13
Q176.162 377.071 176.607 377.071
Q176.977 377.071 177.31 377.199
Q177.749 377.369 177.749 377.672
Q177.749 377.863 177.616 378.011
Q177.485 378.16 177.29 378.16" style="fill:#262626;"/>
     </g>
    </g>
    <g id="xtick_4">
     <g id="line2d_7">
      <path d="
M236.935 355.291
L236.935 363.291" style="fill:#262626;stroke:#ffffff;stroke-width:4;"/>
      <path d="
M236.935 355.291
L236.935 363.291" style="fill:#262626;stroke:#262626;stroke-width:3.0;"/>
     </g>
     <g id="line2d_8">
      <path d="
M236.935 20.4145
L236.935 12.4145" style="fill:#262626;stroke:#ffffff;stroke-width:4;"/>
      <path d="
M236.935 20.4145
L236.935 12.4145" style="fill:#262626;stroke:#262626;stroke-width:3.0;"/>
     </g>
     <g id="text_4">
      <path d="
M236.485 375.832
Q235.821 375.899 234.121 375.899
Q233.712 375.899 233.712 375.519
Q233.712 375.138 234.121 375.138
Q234.507 375.138 235.279 375.103
Q236.051 375.069 236.437 375.069
Q236.871 375.069 236.871 375.45
Q236.871 375.786 236.485 375.832
M240.772 378.155
L239.8 378.155
L238.833 378.15
Q238.492 378.15 238.355 378.107
Q238.106 378.019 238.106 377.735
Q238.106 377.243 238.872 377.243
L239.106 377.247
L239.308 377.257
Q239.308 377.022 239.266 376.564
Q239.224 376.105 239.224 375.875
Q239.224 375.255 239.336 373.989
Q239.444 372.746 239.439 372.1
Q238.784 372.608 238.605 372.608
Q238.409 372.608 238.264 372.463
Q238.12 372.316 238.12 372.125
Q238.12 371.896 238.541 371.567
Q238.805 371.383 239.288 370.972
Q239.717 370.538 240.108 370.538
Q240.434 370.538 240.434 370.914
Q240.434 371.027 240.405 371.249
Q240.377 371.471 240.377 371.583
Q240.377 371.744 240.394 372.072
Q240.411 372.399 240.411 372.56
Q240.411 373.116 240.294 374.221
Q240.177 375.324 240.177 375.875
Q240.177 376.158 240.216 376.564
Q240.255 376.969 240.259 377.227
L240.772 377.217
Q240.977 377.217 241.111 377.352
Q241.245 377.486 241.245 377.686
Q241.245 377.891 241.111 378.024
Q240.977 378.155 240.772 378.155" style="fill:#262626;stroke:#ffffff;stroke-width:4;"/>
      <path d="
M236.485 375.832
Q235.821 375.899 234.121 375.899
Q233.712 375.899 233.712 375.519
Q233.712 375.138 234.121 375.138
Q234.507 375.138 235.279 375.103
Q236.051 375.069 236.437 375.069
Q236.871 375.069 236.871 375.45
Q236.871 375.786 236.485 375.832
M240.772 378.155
L239.8 378.155
L238.833 378.15
Q238.492 378.15 238.355 378.107
Q238.106 378.019 238.106 377.735
Q238.106 377.243 238.872 377.243
L239.106 377.247
L239.308 377.257
Q239.308 377.022 239.266 376.564
Q239.224 376.105 239.224 375.875
Q239.224 375.255 239.336 373.989
Q239.444 372.746 239.439 372.1
Q238.784 372.608 238.605 372.608
Q238.409 372.608 238.264 372.463
Q238.12 372.316 238.12 372.125
Q238.12 371.896 238.541 371.567
Q238.805 371.383 239.288 370.972
Q239.717 370.538 240.108 370.538
Q240.434 370.538 240.434 370.914
Q240.434 371.027 240.405 371.249
Q240.377 371.471 240.377 371.583
Q240.377 371.744 240.394 372.072
Q240.411 372.399 240.411 372.56
Q240.411 373.116 240.294 374.221
Q240.177 375.324 240.177 375.875
Q240.177 376.158 240.216 376.564
Q240.255 376.969 240.259 377.227
L240.772 377.217
Q240.977 377.217 241.111 377.352
Q241.245 377.486 241.245 377.686
Q241.245 377.891 241.111 378.024
Q240.977 378.155 240.772 378.155" style="fill:#262626;"/>
     </g>
    </g>
    <g id="xtick_5">
     <g id="line2d_9">
      <path d="
M301.167 355.291
L301.167 363.291" style="fill:#262626;stroke:#ffffff;stroke-width:4;"/>
      <path d="
M301.167 355.291
L301.167 363.291" style="fill:#262626;stroke:#262626;stroke-width:3.0;"/>
     </g>
     <g id="line2d_10">
      <path d="
M301.167 20.4145
L301.167 12.4145" style="fill:#262626;stroke:#ffffff;stroke-width:4;"/>
      <path d="
M301.167 20.4145
L301.167 12.4145" style="fill:#262626;stroke:#262626;stroke-width:3.0;"/>
     </g>
     <g id="text_5">
      <path d="
M301.416 378.341
Q299.931 378.341 299.248 376.983
Q298.731 375.938 298.731 374.263
Q298.731 372.847 299.405 371.792
Q300.2 370.558 301.567 370.558
Q302.852 370.558 303.57 371.652
Q304.189 372.599 304.189 373.961
Q304.189 376.149 303.495 377.246
Q302.803 378.341 301.416 378.341
M301.562 371.5
Q300.655 371.5 300.122 372.422
Q299.678 373.194 299.678 374.185
Q299.678 375.792 300.112 376.599
Q300.547 377.403 301.416 377.403
Q302.452 377.403 302.9 376.222
Q303.212 375.402 303.212 374.141
Q303.212 372.817 302.8 372.16
Q302.387 371.5 301.562 371.5" style="fill:#262626;stroke:#ffffff;stroke-width:4;"/>
      <path d="
M301.416 378.341
Q299.931 378.341 299.248 376.983
Q298.731 375.938 298.731 374.263
Q298.731 372.847 299.405 371.792
Q300.2 370.558 301.567 370.558
Q302.852 370.558 303.57 371.652
Q304.189 372.599 304.189 373.961
Q304.189 376.149 303.495 377.246
Q302.803 378.341 301.416 378.341
M301.562 371.5
Q300.655 371.5 300.122 372.422
Q299.678 373.194 299.678 374.185
Q299.678 375.792 300.112 376.599
Q300.547 377.403 301.416 377.403
Q302.452 377.403 302.9 376.222
Q303.212 375.402 303.212 374.141
Q303.212 372.817 302.8 372.16
Q302.387 371.5 301.562 371.5" style="fill:#262626;"/>
     </g>
    </g>
    <g id="xtick_6">
     <g id="line2d_11">
      <path d="
M365.399 355.291
L365.399 363.291" style="fill:#262626;stroke:#ffffff;stroke-width:4;"/>
      <path d="
M365.399 355.291
L365.399 363.291" style="fill:#262626;stroke:#262626;stroke-width:3.0;"/>
     </g>
     <g id="line2d_12">
      <path d="
M365.399 20.4145
L365.399 12.4145" style="fill:#262626;stroke:#ffffff;stroke-width:4;"/>
      <path d="
M365.399 20.4145
L365.399 12.4145" style="fill:#262626;stroke:#262626;stroke-width:3.0;"/>
     </g>
     <g id="text_6">
      <path d="
M367.266 378.155
L366.295 378.155
L365.327 378.15
Q364.987 378.15 364.849 378.107
Q364.601 378.019 364.601 377.735
Q364.601 377.243 365.366 377.243
L365.601 377.247
L365.802 377.257
Q365.802 377.022 365.76 376.564
Q365.718 376.105 365.718 375.875
Q365.718 375.255 365.831 373.989
Q365.938 372.746 365.934 372.1
Q365.279 372.608 365.099 372.608
Q364.904 372.608 364.759 372.463
Q364.615 372.316 364.615 372.125
Q364.615 371.896 365.035 371.567
Q365.299 371.383 365.782 370.972
Q366.212 370.538 366.602 370.538
Q366.929 370.538 366.929 370.914
Q366.929 371.027 366.899 371.249
Q366.871 371.471 366.871 371.583
Q366.871 371.744 366.888 372.072
Q366.906 372.399 366.906 372.56
Q366.906 373.116 366.788 374.221
Q366.671 375.324 366.671 375.875
Q366.671 376.158 366.71 376.564
Q366.749 376.969 366.754 377.227
L367.266 377.217
Q367.471 377.217 367.606 377.352
Q367.74 377.486 367.74 377.686
Q367.74 377.891 367.606 378.024
Q367.471 378.155 367.266 378.155" style="fill:#262626;stroke:#ffffff;stroke-width:4;"/>
      <path d="
M367.266 378.155
L366.295 378.155
L365.327 378.15
Q364.987 378.15 364.849 378.107
Q364.601 378.019 364.601 377.735
Q364.601 377.243 365.366 377.243
L365.601 377.247
L365.802 377.257
Q365.802 377.022 365.76 376.564
Q365.718 376.105 365.718 375.875
Q365.718 375.255 365.831 373.989
Q365.938 372.746 365.934 372.1
Q365.279 372.608 365.099 372.608
Q364.904 372.608 364.759 372.463
Q364.615 372.316 364.615 372.125
Q364.615 371.896 365.035 371.567
Q365.299 371.383 365.782 370.972
Q366.212 370.538 366.602 370.538
Q366.929 370.538 366.929 370.914
Q366.929 371.027 366.899 371.249
Q366.871 371.471 366.871 371.583
Q366.871 371.744 366.888 372.072
Q366.906 372.399 366.906 372.56
Q366.906 373.116 366.788 374.221
Q366.671 375.324 366.671 375.875
Q366.671 376.158 366.71 376.564
Q366.749 376.969 366.754 377.227
L367.266 377.217
Q367.471 377.217 367.606 377.352
Q367.74 377.486 367.74 377.686
Q367.74 377.891 367.606 378.024
Q367.471 378.155 367.266 378.155" style="fill:#262626;"/>
     </g>
    </g>
    <g id="xtick_7">
     <g id="line2d_13">
      <path d="
M429.631 355.291
L429.631 363.291" style="fill:#262626;stroke:#ffffff;stroke-width:4;"/>
      <path d="
M429.631 355.291
L429.631 363.291" style="fill:#262626;stroke:#262626;stroke-width:3.0;"/>
     </g>
     <g id="line2d_14">
      <path d="
M429.631 20.4145
L429.631 12.4145" style="fill:#262626;stroke:#ffffff;stroke-width:4;"/>
      <path d="
M429.631 20.4145
L429.631 12.4145" style="fill:#262626;stroke:#262626;stroke-width:3.0;"/>
     </g>
     <g id="text_7">
      <path d="
M432.264 378.16
Q432.142 378.16 431.92 378.085
Q431.699 378.008 431.581 378.008
Q431.331 378.008 430.833 378.038
Q430.336 378.067 430.081 378.067
Q429.891 378.067 429.517 378.116
Q429.144 378.164 428.953 378.164
Q428.9 378.164 428.797 378.146
Q428.695 378.125 428.641 378.125
Q428.305 378.125 428.202 377.799
Q428.144 377.628 428.144 377.213
Q428.144 376.075 428.763 375.382
Q429.047 375.064 430.292 374.21
Q430.989 373.732 431.224 373.463
Q431.644 372.994 431.644 372.364
Q431.644 372.052 431.239 371.808
Q430.883 371.588 430.541 371.588
Q430.091 371.588 429.686 371.847
L428.988 372.394
Q428.778 372.56 428.652 372.56
Q428.149 372.56 428.149 372.16
Q428.149 371.93 428.333 371.763
Q428.905 371.227 429.325 370.988
Q429.916 370.65 430.541 370.65
Q431.331 370.65 431.952 371.08
Q432.645 371.563 432.645 372.321
Q432.645 372.817 432.503 373.238
Q432.363 373.658 432.074 374.005
Q431.708 374.444 430.833 374.986
Q429.916 375.563 429.628 375.86
Q429.086 376.422 429.095 377.222
L430.102 377.13
Q431.136 377.071 431.581 377.071
Q431.952 377.071 432.285 377.199
Q432.724 377.369 432.724 377.672
Q432.724 377.863 432.591 378.011
Q432.46 378.16 432.264 378.16" style="fill:#262626;stroke:#ffffff;stroke-width:4;"/>
      <path d="
M432.264 378.16
Q432.142 378.16 431.92 378.085
Q431.699 378.008 431.581 378.008
Q431.331 378.008 430.833 378.038
Q430.336 378.067 430.081 378.067
Q429.891 378.067 429.517 378.116
Q429.144 378.164 428.953 378.164
Q428.9 378.164 428.797 378.146
Q428.695 378.125 428.641 378.125
Q428.305 378.125 428.202 377.799
Q428.144 377.628 428.144 377.213
Q428.144 376.075 428.763 375.382
Q429.047 375.064 430.292 374.21
Q430.989 373.732 431.224 373.463
Q431.644 372.994 431.644 372.364
Q431.644 372.052 431.239 371.808
Q430.883 371.588 430.541 371.588
Q430.091 371.588 429.686 371.847
L428.988 372.394
Q428.778 372.56 428.652 372.56
Q428.149 372.56 428.149 372.16
Q428.149 371.93 428.333 371.763
Q428.905 371.227 429.325 370.988
Q429.916 370.65 430.541 370.65
Q431.331 370.65 431.952 371.08
Q432.645 371.563 432.645 372.321
Q432.645 372.817 432.503 373.238
Q432.363 373.658 432.074 374.005
Q431.708 374.444 430.833 374.986
Q429.916 375.563 429.628 375.86
Q429.086 376.422 429.095 377.222
L430.102 377.13
Q431.136 377.071 431.581 377.071
Q431.952 377.071 432.285 377.199
Q432.724 377.369 432.724 377.672
Q432.724 377.863 432.591 378.011
Q432.46 378.16 432.264 378.16" style="fill:#262626;"/>
     </g>
    </g>
    <g id="xtick_8">
     <g id="line2d_15">
      <path d="
M493.864 355.291
L493.864 363.291" style="fill:#262626;stroke:#ffffff;stroke-width:4;"/>
      <path d="
M493.864 355.291
L493.864 363.291" style="fill:#262626;stroke:#262626;stroke-width:3.0;"/>
     </g>
     <g id="line2d_16">
      <path d="
M493.864 20.4145
L493.864 12.4145" style="fill:#262626;stroke:#ffffff;stroke-width:4;"/>
      <path d="
M493.864 20.4145
L493.864 12.4145" style="fill:#262626;stroke:#262626;stroke-width:3.0;"/>
     </g>
     <g id="text_8">
      <path d="
M494.529 378.375
Q493.792 378.375 493.206 378.067
Q492.546 377.711 492.317 377.066
Q492.287 376.978 492.287 376.896
Q492.287 376.7 492.435 376.571
Q492.585 376.441 492.781 376.441
Q492.976 376.441 493.118 376.622
L493.342 376.958
Q493.518 377.199 493.815 377.319
Q494.114 377.438 494.529 377.438
Q495.06 377.438 495.462 377.105
Q495.885 376.753 495.885 376.246
Q495.885 375.508 495.345 375.069
Q494.865 374.688 494.074 374.605
Q493.532 374.552 493.532 374.166
Q493.532 373.878 493.957 373.727
L495.124 373.438
Q495.462 373.316 495.632 373.11
Q495.803 372.902 495.807 372.603
Q495.818 372.174 495.476 371.91
Q495.12 371.636 494.474 371.636
Q494.143 371.636 493.831 371.797
L493.279 372.144
Q493.118 372.247 493.02 372.247
Q492.824 372.247 492.685 372.099
Q492.546 371.949 492.546 371.758
Q492.546 371.372 493.293 371.016
Q493.943 370.699 494.362 370.699
Q495.412 370.699 496.028 371.163
Q496.687 371.661 496.687 372.583
Q496.687 373.732 495.759 374.097
Q495.676 374.132 495.568 374.166
Q496.218 374.405 496.54 374.882
Q496.862 375.357 496.862 376.071
Q496.862 377.032 496.184 377.703
Q495.506 378.375 494.529 378.375" style="fill:#262626;stroke:#ffffff;stroke-width:4;"/>
      <path d="
M494.529 378.375
Q493.792 378.375 493.206 378.067
Q492.546 377.711 492.317 377.066
Q492.287 376.978 492.287 376.896
Q492.287 376.7 492.435 376.571
Q492.585 376.441 492.781 376.441
Q492.976 376.441 493.118 376.622
L493.342 376.958
Q493.518 377.199 493.815 377.319
Q494.114 377.438 494.529 377.438
Q495.06 377.438 495.462 377.105
Q495.885 376.753 495.885 376.246
Q495.885 375.508 495.345 375.069
Q494.865 374.688 494.074 374.605
Q493.532 374.552 493.532 374.166
Q493.532 373.878 493.957 373.727
L495.124 373.438
Q495.462 373.316 495.632 373.11
Q495.803 372.902 495.807 372.603
Q495.818 372.174 495.476 371.91
Q495.12 371.636 494.474 371.636
Q494.143 371.636 493.831 371.797
L493.279 372.144
Q493.118 372.247 493.02 372.247
Q492.824 372.247 492.685 372.099
Q492.546 371.949 492.546 371.758
Q492.546 371.372 493.293 371.016
Q493.943 370.699 494.362 370.699
Q495.412 370.699 496.028 371.163
Q496.687 371.661 496.687 372.583
Q496.687 373.732 495.759 374.097
Q495.676 374.132 495.568 374.166
Q496.218 374.405 496.54 374.882
Q496.862 375.357 496.862 376.071
Q496.862 377.032 496.184 377.703
Q495.506 378.375 494.529 378.375" style="fill:#262626;"/>
     </g>
    </g>
    <g id="xtick_9">
     <g id="line2d_17">
      <path d="
M558.096 355.291
L558.096 363.291" style="fill:#262626;stroke:#ffffff;stroke-width:4;"/>
      <path d="
M558.096 355.291
L558.096 363.291" style="fill:#262626;stroke:#262626;stroke-width:3.0;"/>
     </g>
     <g id="line2d_18">
      <path d="
M558.096 20.4145
L558.096 12.4145" style="fill:#262626;stroke:#ffffff;stroke-width:4;"/>
      <path d="
M558.096 20.4145
L558.096 12.4145" style="fill:#262626;stroke:#262626;stroke-width:3.0;"/>
     </g>
     <g id="text_9">
      <path d="
M560.014 376.016
L560.014 377.824
Q560.014 378.277 559.569 378.277
Q559.052 378.277 559.052 377.569
Q559.052 377.482 559.061 377.321
Q559.071 377.16 559.071 377.1
L559.066 375.993
L556.913 375.938
Q556.244 375.938 555.985 375.894
Q555.541 375.821 555.541 375.547
Q555.541 375.328 555.81 374.991
L556.23 374.493
L558.632 370.988
Q558.96 370.533 559.461 370.533
Q560.014 370.533 560.014 371.011
L560.014 375.069
Q560.097 375.064 560.214 375.064
Q561.113 375.064 561.113 375.547
Q561.113 375.899 560.741 375.993
Q560.575 376.036 560.014 376.016
M559.066 371.886
Q557.763 373.966 557.03 375
L559.066 375.05
z
" style="fill:#262626;stroke:#ffffff;stroke-width:4;"/>
      <path d="
M560.014 376.016
L560.014 377.824
Q560.014 378.277 559.569 378.277
Q559.052 378.277 559.052 377.569
Q559.052 377.482 559.061 377.321
Q559.071 377.16 559.071 377.1
L559.066 375.993
L556.913 375.938
Q556.244 375.938 555.985 375.894
Q555.541 375.821 555.541 375.547
Q555.541 375.328 555.81 374.991
L556.23 374.493
L558.632 370.988
Q558.96 370.533 559.461 370.533
Q560.014 370.533 560.014 371.011
L560.014 375.069
Q560.097 375.064 560.214 375.064
Q561.113 375.064 561.113 375.547
Q561.113 375.899 560.741 375.993
Q560.575 376.036 560.014 376.016
M559.066 371.886
Q557.763 373.966 557.03 375
L559.066 375.05
z
" style="fill:#262626;"/>
     </g>
    </g>
   </g>
   <g id="matplotlib.axis_2">
    <g id="ytick_1">
     <g id="line2d_19">
      <path d="
M44.2388 355.291
L36.2388 355.291" style="fill:#262626;stroke:#ffffff;stroke-width:4;"/>
      <path d="
M44.2388 355.291
L36.2388 355.291" style="fill:#262626;stroke:#262626;stroke-width:3.0;"/>
     </g>
     <g id="line2d_20">
      <path d="
M558.096 355.291
L566.096 355.291" style="fill:#262626;stroke:#ffffff;stroke-width:4;"/>
      <path d="
M558.096 355.291
L566.096 355.291" style="fill:#262626;stroke:#262626;stroke-width:3.0;"/>
     </g>
     <g id="text_10">
      <path d="
M18.1591 357.989
Q16.6747 357.989 15.9919 356.632
Q15.4747 355.586 15.4747 353.911
Q15.4747 352.496 16.1481 351.441
Q16.9434 350.207 18.3106 350.207
Q19.595 350.207 20.3138 351.3
Q20.9325 352.247 20.9325 353.61
Q20.9325 355.797 20.2388 356.894
Q19.5466 357.989 18.1591 357.989
M18.3059 351.149
Q17.3981 351.149 16.8653 352.071
Q16.4216 352.842 16.4216 353.833
Q16.4216 355.441 16.8559 356.247
Q17.2903 357.052 18.1591 357.052
Q19.195 357.052 19.6434 355.871
Q19.9559 355.05 19.9559 353.789
Q19.9559 352.466 19.5434 351.808
Q19.1309 351.149 18.3059 351.149
M22.5829 358.253
Q22.3298 358.253 22.1532 358.077
Q21.9782 357.902 21.9782 357.647
Q21.9782 357.399 22.1532 357.221
Q22.3298 357.042 22.5829 357.042
Q22.8329 357.042 23.011 357.221
Q23.1891 357.399 23.1891 357.647
Q23.1891 357.902 23.011 358.077
Q22.8329 358.253 22.5829 358.253
M26.7528 357.989
Q25.2684 357.989 24.5856 356.632
Q24.0684 355.586 24.0684 353.911
Q24.0684 352.496 24.7419 351.441
Q25.5372 350.207 26.9044 350.207
Q28.1888 350.207 28.9075 351.3
Q29.5263 352.247 29.5263 353.61
Q29.5263 355.797 28.8325 356.894
Q28.1403 357.989 26.7528 357.989
M26.8997 351.149
Q25.9919 351.149 25.4591 352.071
Q25.0153 352.842 25.0153 353.833
Q25.0153 355.441 25.4497 356.247
Q25.8841 357.052 26.7528 357.052
Q27.7888 357.052 28.2372 355.871
Q28.5497 355.05 28.5497 353.789
Q28.5497 352.466 28.1372 351.808
Q27.7247 351.149 26.8997 351.149" style="fill:#262626;stroke:#ffffff;stroke-width:4;"/>
      <path d="
M18.1591 357.989
Q16.6747 357.989 15.9919 356.632
Q15.4747 355.586 15.4747 353.911
Q15.4747 352.496 16.1481 351.441
Q16.9434 350.207 18.3106 350.207
Q19.595 350.207 20.3138 351.3
Q20.9325 352.247 20.9325 353.61
Q20.9325 355.797 20.2388 356.894
Q19.5466 357.989 18.1591 357.989
M18.3059 351.149
Q17.3981 351.149 16.8653 352.071
Q16.4216 352.842 16.4216 353.833
Q16.4216 355.441 16.8559 356.247
Q17.2903 357.052 18.1591 357.052
Q19.195 357.052 19.6434 355.871
Q19.9559 355.05 19.9559 353.789
Q19.9559 352.466 19.5434 351.808
Q19.1309 351.149 18.3059 351.149
M22.5829 358.253
Q22.3298 358.253 22.1532 358.077
Q21.9782 357.902 21.9782 357.647
Q21.9782 357.399 22.1532 357.221
Q22.3298 357.042 22.5829 357.042
Q22.8329 357.042 23.011 357.221
Q23.1891 357.399 23.1891 357.647
Q23.1891 357.902 23.011 358.077
Q22.8329 358.253 22.5829 358.253
M26.7528 357.989
Q25.2684 357.989 24.5856 356.632
Q24.0684 355.586 24.0684 353.911
Q24.0684 352.496 24.7419 351.441
Q25.5372 350.207 26.9044 350.207
Q28.1888 350.207 28.9075 351.3
Q29.5263 352.247 29.5263 353.61
Q29.5263 355.797 28.8325 356.894
Q28.1403 357.989 26.7528 357.989
M26.8997 351.149
Q25.9919 351.149 25.4591 352.071
Q25.0153 352.842 25.0153 353.833
Q25.0153 355.441 25.4497 356.247
Q25.8841 357.052 26.7528 357.052
Q27.7888 357.052 28.2372 355.871
Q28.5497 355.05 28.5497 353.789
Q28.5497 352.466 28.1372 351.808
Q27.7247 351.149 26.8997 351.149" style="fill:#262626;"/>
     </g>
    </g>
    <g id="ytick_2">
     <g id="line2d_21">
      <path d="
M44.2388 299.478
L36.2388 299.478" style="fill:#262626;stroke:#ffffff;stroke-width:4;"/>
      <path d="
M44.2388 299.478
L36.2388 299.478" style="fill:#262626;stroke:#262626;stroke-width:3.0;"/>
     </g>
     <g id="line2d_22">
      <path d="
M558.096 299.478
L566.096 299.478" style="fill:#262626;stroke:#ffffff;stroke-width:4;"/>
      <path d="
M558.096 299.478
L566.096 299.478" style="fill:#262626;stroke:#262626;stroke-width:3.0;"/>
     </g>
     <g id="text_11">
      <path d="
M20.0184 302.177
Q18.5341 302.177 17.8513 300.819
Q17.3341 299.774 17.3341 298.099
Q17.3341 296.683 18.0075 295.628
Q18.8028 294.394 20.17 294.394
Q21.4544 294.394 22.1731 295.488
Q22.7919 296.434 22.7919 297.797
Q22.7919 299.984 22.0981 301.081
Q21.4059 302.177 20.0184 302.177
M20.1653 295.336
Q19.2575 295.336 18.7247 296.258
Q18.2809 297.03 18.2809 298.02
Q18.2809 299.628 18.7153 300.434
Q19.1497 301.239 20.0184 301.239
Q21.0544 301.239 21.5028 300.058
Q21.8153 299.238 21.8153 297.977
Q21.8153 296.653 21.4028 295.995
Q20.9903 295.336 20.1653 295.336
M24.4423 302.441
Q24.1891 302.441 24.0126 302.264
Q23.8376 302.089 23.8376 301.834
Q23.8376 301.586 24.0126 301.408
Q24.1891 301.23 24.4423 301.23
Q24.6923 301.23 24.8704 301.408
Q25.0485 301.586 25.0485 301.834
Q25.0485 302.089 24.8704 302.264
Q24.6923 302.441 24.4423 302.441
M29.0669 301.991
L28.095 301.991
L27.1278 301.986
Q26.7872 301.986 26.6497 301.942
Q26.4013 301.855 26.4013 301.57
Q26.4013 301.078 27.1669 301.078
L27.4013 301.083
L27.6028 301.092
Q27.6028 300.858 27.5606 300.4
Q27.5184 299.941 27.5184 299.711
Q27.5184 299.091 27.6309 297.825
Q27.7388 296.581 27.7341 295.936
Q27.0794 296.444 26.8997 296.444
Q26.7044 296.444 26.5591 296.299
Q26.4153 296.152 26.4153 295.961
Q26.4153 295.731 26.8356 295.403
Q27.0997 295.219 27.5825 294.808
Q28.0122 294.374 28.4028 294.374
Q28.7294 294.374 28.7294 294.75
Q28.7294 294.863 28.6997 295.084
Q28.6716 295.306 28.6716 295.419
Q28.6716 295.58 28.6888 295.908
Q28.7059 296.234 28.7059 296.395
Q28.7059 296.952 28.5888 298.056
Q28.4716 299.159 28.4716 299.711
Q28.4716 299.994 28.5106 300.4
Q28.5497 300.805 28.5544 301.063
L29.0669 301.053
Q29.2716 301.053 29.4059 301.188
Q29.5403 301.322 29.5403 301.522
Q29.5403 301.727 29.4059 301.859
Q29.2716 301.991 29.0669 301.991" style="fill:#262626;stroke:#ffffff;stroke-width:4;"/>
      <path d="
M20.0184 302.177
Q18.5341 302.177 17.8513 300.819
Q17.3341 299.774 17.3341 298.099
Q17.3341 296.683 18.0075 295.628
Q18.8028 294.394 20.17 294.394
Q21.4544 294.394 22.1731 295.488
Q22.7919 296.434 22.7919 297.797
Q22.7919 299.984 22.0981 301.081
Q21.4059 302.177 20.0184 302.177
M20.1653 295.336
Q19.2575 295.336 18.7247 296.258
Q18.2809 297.03 18.2809 298.02
Q18.2809 299.628 18.7153 300.434
Q19.1497 301.239 20.0184 301.239
Q21.0544 301.239 21.5028 300.058
Q21.8153 299.238 21.8153 297.977
Q21.8153 296.653 21.4028 295.995
Q20.9903 295.336 20.1653 295.336
M24.4423 302.441
Q24.1891 302.441 24.0126 302.264
Q23.8376 302.089 23.8376 301.834
Q23.8376 301.586 24.0126 301.408
Q24.1891 301.23 24.4423 301.23
Q24.6923 301.23 24.8704 301.408
Q25.0485 301.586 25.0485 301.834
Q25.0485 302.089 24.8704 302.264
Q24.6923 302.441 24.4423 302.441
M29.0669 301.991
L28.095 301.991
L27.1278 301.986
Q26.7872 301.986 26.6497 301.942
Q26.4013 301.855 26.4013 301.57
Q26.4013 301.078 27.1669 301.078
L27.4013 301.083
L27.6028 301.092
Q27.6028 300.858 27.5606 300.4
Q27.5184 299.941 27.5184 299.711
Q27.5184 299.091 27.6309 297.825
Q27.7388 296.581 27.7341 295.936
Q27.0794 296.444 26.8997 296.444
Q26.7044 296.444 26.5591 296.299
Q26.4153 296.152 26.4153 295.961
Q26.4153 295.731 26.8356 295.403
Q27.0997 295.219 27.5825 294.808
Q28.0122 294.374 28.4028 294.374
Q28.7294 294.374 28.7294 294.75
Q28.7294 294.863 28.6997 295.084
Q28.6716 295.306 28.6716 295.419
Q28.6716 295.58 28.6888 295.908
Q28.7059 296.234 28.7059 296.395
Q28.7059 296.952 28.5888 298.056
Q28.4716 299.159 28.4716 299.711
Q28.4716 299.994 28.5106 300.4
Q28.5497 300.805 28.5544 301.063
L29.0669 301.053
Q29.2716 301.053 29.4059 301.188
Q29.5403 301.322 29.5403 301.522
Q29.5403 301.727 29.4059 301.859
Q29.2716 301.991 29.0669 301.991" style="fill:#262626;"/>
     </g>
    </g>
    <g id="ytick_3">
     <g id="line2d_23">
      <path d="
M44.2388 243.665
L36.2388 243.665" style="fill:#262626;stroke:#ffffff;stroke-width:4;"/>
      <path d="
M44.2388 243.665
L36.2388 243.665" style="fill:#262626;stroke:#262626;stroke-width:3.0;"/>
     </g>
     <g id="line2d_24">
      <path d="
M558.096 243.665
L566.096 243.665" style="fill:#262626;stroke:#ffffff;stroke-width:4;"/>
      <path d="
M558.096 243.665
L566.096 243.665" style="fill:#262626;stroke:#262626;stroke-width:3.0;"/>
     </g>
     <g id="text_12">
      <path d="
M18.5497 246.364
Q17.0653 246.364 16.3825 245.006
Q15.8653 243.961 15.8653 242.286
Q15.8653 240.87 16.5388 239.815
Q17.3341 238.581 18.7013 238.581
Q19.9856 238.581 20.7044 239.675
Q21.3231 240.622 21.3231 241.984
Q21.3231 244.172 20.6294 245.269
Q19.9372 246.364 18.5497 246.364
M18.6966 239.523
Q17.7888 239.523 17.2559 240.445
Q16.8122 241.217 16.8122 242.208
Q16.8122 243.815 17.2466 244.622
Q17.6809 245.426 18.5497 245.426
Q19.5856 245.426 20.0341 244.245
Q20.3466 243.425 20.3466 242.164
Q20.3466 240.84 19.9341 240.183
Q19.5216 239.523 18.6966 239.523
M22.9735 246.628
Q22.7204 246.628 22.5438 246.451
Q22.3688 246.276 22.3688 246.022
Q22.3688 245.773 22.5438 245.595
Q22.7204 245.417 22.9735 245.417
Q23.2235 245.417 23.4016 245.595
Q23.5798 245.773 23.5798 246.022
Q23.5798 246.276 23.4016 246.451
Q23.2235 246.628 22.9735 246.628
M29.0825 246.183
Q28.9606 246.183 28.7388 246.108
Q28.5169 246.031 28.3997 246.031
Q28.1497 246.031 27.6513 246.061
Q27.1544 246.09 26.8997 246.09
Q26.7091 246.09 26.3356 246.139
Q25.9622 246.187 25.7716 246.187
Q25.7184 246.187 25.6153 246.169
Q25.5138 246.148 25.4591 246.148
Q25.1231 246.148 25.02 245.822
Q24.9622 245.651 24.9622 245.236
Q24.9622 244.098 25.5809 243.405
Q25.8653 243.087 27.1106 242.233
Q27.8075 241.755 28.0419 241.486
Q28.4622 241.017 28.4622 240.387
Q28.4622 240.075 28.0575 239.831
Q27.7013 239.611 27.3591 239.611
Q26.9091 239.611 26.5044 239.87
L25.8059 240.417
Q25.5966 240.583 25.47 240.583
Q24.9669 240.583 24.9669 240.183
Q24.9669 239.953 25.1513 239.786
Q25.7231 239.25 26.1434 239.011
Q26.7341 238.673 27.3591 238.673
Q28.1497 238.673 28.77 239.103
Q29.4638 239.586 29.4638 240.344
Q29.4638 240.84 29.3216 241.261
Q29.1809 241.681 28.8919 242.028
Q28.5263 242.467 27.6513 243.009
Q26.7341 243.586 26.4466 243.883
Q25.9044 244.445 25.9138 245.245
L26.92 245.153
Q27.9544 245.094 28.3997 245.094
Q28.77 245.094 29.1028 245.222
Q29.5419 245.392 29.5419 245.695
Q29.5419 245.886 29.4091 246.034
Q29.2778 246.183 29.0825 246.183" style="fill:#262626;stroke:#ffffff;stroke-width:4;"/>
      <path d="
M18.5497 246.364
Q17.0653 246.364 16.3825 245.006
Q15.8653 243.961 15.8653 242.286
Q15.8653 240.87 16.5388 239.815
Q17.3341 238.581 18.7013 238.581
Q19.9856 238.581 20.7044 239.675
Q21.3231 240.622 21.3231 241.984
Q21.3231 244.172 20.6294 245.269
Q19.9372 246.364 18.5497 246.364
M18.6966 239.523
Q17.7888 239.523 17.2559 240.445
Q16.8122 241.217 16.8122 242.208
Q16.8122 243.815 17.2466 244.622
Q17.6809 245.426 18.5497 245.426
Q19.5856 245.426 20.0341 244.245
Q20.3466 243.425 20.3466 242.164
Q20.3466 240.84 19.9341 240.183
Q19.5216 239.523 18.6966 239.523
M22.9735 246.628
Q22.7204 246.628 22.5438 246.451
Q22.3688 246.276 22.3688 246.022
Q22.3688 245.773 22.5438 245.595
Q22.7204 245.417 22.9735 245.417
Q23.2235 245.417 23.4016 245.595
Q23.5798 245.773 23.5798 246.022
Q23.5798 246.276 23.4016 246.451
Q23.2235 246.628 22.9735 246.628
M29.0825 246.183
Q28.9606 246.183 28.7388 246.108
Q28.5169 246.031 28.3997 246.031
Q28.1497 246.031 27.6513 246.061
Q27.1544 246.09 26.8997 246.09
Q26.7091 246.09 26.3356 246.139
Q25.9622 246.187 25.7716 246.187
Q25.7184 246.187 25.6153 246.169
Q25.5138 246.148 25.4591 246.148
Q25.1231 246.148 25.02 245.822
Q24.9622 245.651 24.9622 245.236
Q24.9622 244.098 25.5809 243.405
Q25.8653 243.087 27.1106 242.233
Q27.8075 241.755 28.0419 241.486
Q28.4622 241.017 28.4622 240.387
Q28.4622 240.075 28.0575 239.831
Q27.7013 239.611 27.3591 239.611
Q26.9091 239.611 26.5044 239.87
L25.8059 240.417
Q25.5966 240.583 25.47 240.583
Q24.9669 240.583 24.9669 240.183
Q24.9669 239.953 25.1513 239.786
Q25.7231 239.25 26.1434 239.011
Q26.7341 238.673 27.3591 238.673
Q28.1497 238.673 28.77 239.103
Q29.4638 239.586 29.4638 240.344
Q29.4638 240.84 29.3216 241.261
Q29.1809 241.681 28.8919 242.028
Q28.5263 242.467 27.6513 243.009
Q26.7341 243.586 26.4466 243.883
Q25.9044 244.445 25.9138 245.245
L26.92 245.153
Q27.9544 245.094 28.3997 245.094
Q28.77 245.094 29.1028 245.222
Q29.5419 245.392 29.5419 245.695
Q29.5419 245.886 29.4091 246.034
Q29.2778 246.183 29.0825 246.183" style="fill:#262626;"/>
     </g>
    </g>
    <g id="ytick_4">
     <g id="line2d_25">
      <path d="
M44.2388 187.853
L36.2388 187.853" style="fill:#262626;stroke:#ffffff;stroke-width:4;"/>
      <path d="
M44.2388 187.853
L36.2388 187.853" style="fill:#262626;stroke:#262626;stroke-width:3.0;"/>
     </g>
     <g id="line2d_26">
      <path d="
M558.096 187.853
L566.096 187.853" style="fill:#262626;stroke:#ffffff;stroke-width:4;"/>
      <path d="
M558.096 187.853
L566.096 187.853" style="fill:#262626;stroke:#262626;stroke-width:3.0;"/>
     </g>
     <g id="text_13">
      <path d="
M18.6278 190.551
Q17.1434 190.551 16.4606 189.193
Q15.9434 188.148 15.9434 186.473
Q15.9434 185.057 16.6169 184.003
Q17.4122 182.768 18.7794 182.768
Q20.0638 182.768 20.7825 183.862
Q21.4013 184.809 21.4013 186.171
Q21.4013 188.359 20.7075 189.456
Q20.0153 190.551 18.6278 190.551
M18.7747 183.711
Q17.8669 183.711 17.3341 184.632
Q16.8903 185.404 16.8903 186.395
Q16.8903 188.003 17.3247 188.809
Q17.7591 189.614 18.6278 189.614
Q19.6638 189.614 20.1122 188.432
Q20.4247 187.612 20.4247 186.351
Q20.4247 185.028 20.0122 184.37
Q19.5997 183.711 18.7747 183.711
M23.0516 190.815
Q22.7985 190.815 22.622 190.639
Q22.447 190.464 22.447 190.209
Q22.447 189.961 22.622 189.782
Q22.7985 189.604 23.0516 189.604
Q23.3016 189.604 23.4798 189.782
Q23.6579 189.961 23.6579 190.209
Q23.6579 190.464 23.4798 190.639
Q23.3016 190.815 23.0516 190.815
M27.1934 190.586
Q26.4559 190.586 25.87 190.278
Q25.2106 189.921 24.9809 189.276
Q24.9513 189.189 24.9513 189.106
Q24.9513 188.911 25.0997 188.781
Q25.2497 188.651 25.445 188.651
Q25.6403 188.651 25.7825 188.832
L26.0059 189.168
Q26.1825 189.409 26.4794 189.529
Q26.7778 189.648 27.1934 189.648
Q27.7247 189.648 28.1263 189.315
Q28.5497 188.964 28.5497 188.456
Q28.5497 187.718 28.0091 187.279
Q27.5294 186.898 26.7388 186.815
Q26.1966 186.762 26.1966 186.376
Q26.1966 186.089 26.6216 185.937
L27.7888 185.648
Q28.1263 185.526 28.2966 185.32
Q28.4669 185.112 28.4716 184.814
Q28.4825 184.384 28.1403 184.12
Q27.7841 183.846 27.1388 183.846
Q26.8075 183.846 26.495 184.007
L25.9434 184.354
Q25.7825 184.457 25.6841 184.457
Q25.4888 184.457 25.3497 184.309
Q25.2106 184.159 25.2106 183.968
Q25.2106 183.582 25.9575 183.226
Q26.6075 182.909 27.0263 182.909
Q28.0763 182.909 28.6919 183.373
Q29.3513 183.871 29.3513 184.793
Q29.3513 185.942 28.4231 186.307
Q28.3403 186.342 28.2325 186.376
Q28.8825 186.615 29.2044 187.092
Q29.5263 187.567 29.5263 188.281
Q29.5263 189.242 28.8481 189.914
Q28.17 190.586 27.1934 190.586" style="fill:#262626;stroke:#ffffff;stroke-width:4;"/>
      <path d="
M18.6278 190.551
Q17.1434 190.551 16.4606 189.193
Q15.9434 188.148 15.9434 186.473
Q15.9434 185.057 16.6169 184.003
Q17.4122 182.768 18.7794 182.768
Q20.0638 182.768 20.7825 183.862
Q21.4013 184.809 21.4013 186.171
Q21.4013 188.359 20.7075 189.456
Q20.0153 190.551 18.6278 190.551
M18.7747 183.711
Q17.8669 183.711 17.3341 184.632
Q16.8903 185.404 16.8903 186.395
Q16.8903 188.003 17.3247 188.809
Q17.7591 189.614 18.6278 189.614
Q19.6638 189.614 20.1122 188.432
Q20.4247 187.612 20.4247 186.351
Q20.4247 185.028 20.0122 184.37
Q19.5997 183.711 18.7747 183.711
M23.0516 190.815
Q22.7985 190.815 22.622 190.639
Q22.447 190.464 22.447 190.209
Q22.447 189.961 22.622 189.782
Q22.7985 189.604 23.0516 189.604
Q23.3016 189.604 23.4798 189.782
Q23.6579 189.961 23.6579 190.209
Q23.6579 190.464 23.4798 190.639
Q23.3016 190.815 23.0516 190.815
M27.1934 190.586
Q26.4559 190.586 25.87 190.278
Q25.2106 189.921 24.9809 189.276
Q24.9513 189.189 24.9513 189.106
Q24.9513 188.911 25.0997 188.781
Q25.2497 188.651 25.445 188.651
Q25.6403 188.651 25.7825 188.832
L26.0059 189.168
Q26.1825 189.409 26.4794 189.529
Q26.7778 189.648 27.1934 189.648
Q27.7247 189.648 28.1263 189.315
Q28.5497 188.964 28.5497 188.456
Q28.5497 187.718 28.0091 187.279
Q27.5294 186.898 26.7388 186.815
Q26.1966 186.762 26.1966 186.376
Q26.1966 186.089 26.6216 185.937
L27.7888 185.648
Q28.1263 185.526 28.2966 185.32
Q28.4669 185.112 28.4716 184.814
Q28.4825 184.384 28.1403 184.12
Q27.7841 183.846 27.1388 183.846
Q26.8075 183.846 26.495 184.007
L25.9434 184.354
Q25.7825 184.457 25.6841 184.457
Q25.4888 184.457 25.3497 184.309
Q25.2106 184.159 25.2106 183.968
Q25.2106 183.582 25.9575 183.226
Q26.6075 182.909 27.0263 182.909
Q28.0763 182.909 28.6919 183.373
Q29.3513 183.871 29.3513 184.793
Q29.3513 185.942 28.4231 186.307
Q28.3403 186.342 28.2325 186.376
Q28.8825 186.615 29.2044 187.092
Q29.5263 187.567 29.5263 188.281
Q29.5263 189.242 28.8481 189.914
Q28.17 190.586 27.1934 190.586" style="fill:#262626;"/>
     </g>
    </g>
    <g id="ytick_5">
     <g id="line2d_27">
      <path d="
M44.2388 132.04
L36.2388 132.04" style="fill:#262626;stroke:#ffffff;stroke-width:4;"/>
      <path d="
M44.2388 132.04
L36.2388 132.04" style="fill:#262626;stroke:#262626;stroke-width:3.0;"/>
     </g>
     <g id="line2d_28">
      <path d="
M558.096 132.04
L566.096 132.04" style="fill:#262626;stroke:#ffffff;stroke-width:4;"/>
      <path d="
M558.096 132.04
L566.096 132.04" style="fill:#262626;stroke:#262626;stroke-width:3.0;"/>
     </g>
     <g id="text_14">
      <path d="
M18.1122 134.738
Q16.6278 134.738 15.945 133.381
Q15.4278 132.335 15.4278 130.66
Q15.4278 129.245 16.1013 128.19
Q16.8966 126.956 18.2638 126.956
Q19.5481 126.956 20.2669 128.049
Q20.8856 128.996 20.8856 130.359
Q20.8856 132.546 20.1919 133.643
Q19.4997 134.738 18.1122 134.738
M18.2591 127.898
Q17.3513 127.898 16.8184 128.82
Q16.3747 129.592 16.3747 130.582
Q16.3747 132.19 16.8091 132.996
Q17.2434 133.801 18.1122 133.801
Q19.1481 133.801 19.5966 132.62
Q19.9091 131.799 19.9091 130.538
Q19.9091 129.215 19.4966 128.557
Q19.0841 127.898 18.2591 127.898
M22.536 135.003
Q22.2829 135.003 22.1063 134.826
Q21.9313 134.651 21.9313 134.396
Q21.9313 134.148 22.1063 133.97
Q22.2829 133.792 22.536 133.792
Q22.786 133.792 22.9641 133.97
Q23.1423 134.148 23.1423 134.396
Q23.1423 134.651 22.9641 134.826
Q22.786 135.003 22.536 135.003
M28.4309 132.413
L28.4309 134.221
Q28.4309 134.674 27.9856 134.674
Q27.4684 134.674 27.4684 133.967
Q27.4684 133.879 27.4778 133.718
Q27.4872 133.557 27.4872 133.498
L27.4825 132.39
L25.3294 132.335
Q24.6606 132.335 24.4013 132.292
Q23.9575 132.218 23.9575 131.945
Q23.9575 131.726 24.2263 131.388
L24.6466 130.89
L27.0481 127.385
Q27.3763 126.931 27.8778 126.931
Q28.4309 126.931 28.4309 127.409
L28.4309 131.467
Q28.5138 131.462 28.6309 131.462
Q29.5294 131.462 29.5294 131.945
Q29.5294 132.296 29.1575 132.39
Q28.9919 132.434 28.4309 132.413
M27.4825 128.284
Q26.1794 130.363 25.4466 131.398
L27.4825 131.448
z
" style="fill:#262626;stroke:#ffffff;stroke-width:4;"/>
      <path d="
M18.1122 134.738
Q16.6278 134.738 15.945 133.381
Q15.4278 132.335 15.4278 130.66
Q15.4278 129.245 16.1013 128.19
Q16.8966 126.956 18.2638 126.956
Q19.5481 126.956 20.2669 128.049
Q20.8856 128.996 20.8856 130.359
Q20.8856 132.546 20.1919 133.643
Q19.4997 134.738 18.1122 134.738
M18.2591 127.898
Q17.3513 127.898 16.8184 128.82
Q16.3747 129.592 16.3747 130.582
Q16.3747 132.19 16.8091 132.996
Q17.2434 133.801 18.1122 133.801
Q19.1481 133.801 19.5966 132.62
Q19.9091 131.799 19.9091 130.538
Q19.9091 129.215 19.4966 128.557
Q19.0841 127.898 18.2591 127.898
M22.536 135.003
Q22.2829 135.003 22.1063 134.826
Q21.9313 134.651 21.9313 134.396
Q21.9313 134.148 22.1063 133.97
Q22.2829 133.792 22.536 133.792
Q22.786 133.792 22.9641 133.97
Q23.1423 134.148 23.1423 134.396
Q23.1423 134.651 22.9641 134.826
Q22.786 135.003 22.536 135.003
M28.4309 132.413
L28.4309 134.221
Q28.4309 134.674 27.9856 134.674
Q27.4684 134.674 27.4684 133.967
Q27.4684 133.879 27.4778 133.718
Q27.4872 133.557 27.4872 133.498
L27.4825 132.39
L25.3294 132.335
Q24.6606 132.335 24.4013 132.292
Q23.9575 132.218 23.9575 131.945
Q23.9575 131.726 24.2263 131.388
L24.6466 130.89
L27.0481 127.385
Q27.3763 126.931 27.8778 126.931
Q28.4309 126.931 28.4309 127.409
L28.4309 131.467
Q28.5138 131.462 28.6309 131.462
Q29.5294 131.462 29.5294 131.945
Q29.5294 132.296 29.1575 132.39
Q28.9919 132.434 28.4309 132.413
M27.4825 128.284
Q26.1794 130.363 25.4466 131.398
L27.4825 131.448
z
" style="fill:#262626;"/>
     </g>
    </g>
    <g id="ytick_6">
     <g id="line2d_29">
      <path d="
M44.2388 76.2273
L36.2388 76.2273" style="fill:#262626;stroke:#ffffff;stroke-width:4;"/>
      <path d="
M44.2388 76.2273
L36.2388 76.2273" style="fill:#262626;stroke:#262626;stroke-width:3.0;"/>
     </g>
     <g id="line2d_30">
      <path d="
M558.096 76.2273
L566.096 76.2273" style="fill:#262626;stroke:#ffffff;stroke-width:4;"/>
      <path d="
M558.096 76.2273
L566.096 76.2273" style="fill:#262626;stroke:#262626;stroke-width:3.0;"/>
     </g>
     <g id="text_15">
      <path d="
M18.2997 78.9257
Q16.8153 78.9257 16.1325 77.5679
Q15.6153 76.5226 15.6153 74.8476
Q15.6153 73.432 16.2888 72.3773
Q17.0841 71.1429 18.4513 71.1429
Q19.7356 71.1429 20.4544 72.2366
Q21.0731 73.1835 21.0731 74.546
Q21.0731 76.7335 20.3794 77.8304
Q19.6872 78.9257 18.2997 78.9257
M18.4466 72.0851
Q17.5388 72.0851 17.0059 73.007
Q16.5622 73.7788 16.5622 74.7695
Q16.5622 76.3773 16.9966 77.1835
Q17.4309 77.9882 18.2997 77.9882
Q19.3356 77.9882 19.7841 76.807
Q20.0966 75.9866 20.0966 74.7257
Q20.0966 73.4023 19.6841 72.7445
Q19.2716 72.0851 18.4466 72.0851
M22.7235 79.1898
Q22.4704 79.1898 22.2938 79.0132
Q22.1188 78.8382 22.1188 78.5835
Q22.1188 78.3351 22.2938 78.157
Q22.4704 77.9788 22.7235 77.9788
Q22.9735 77.9788 23.1516 78.157
Q23.3298 78.3351 23.3298 78.5835
Q23.3298 78.8382 23.1516 79.0132
Q22.9735 79.1898 22.7235 79.1898
M26.6544 79.0429
Q25.2684 79.0429 24.6138 78.0179
Q24.5263 77.8757 24.5263 77.7445
Q24.5263 77.5538 24.6778 77.4148
Q24.8294 77.2757 25.0184 77.2757
Q25.22 77.2757 25.3997 77.4898
Q25.6591 77.8023 25.7903 77.8898
Q26.1075 78.1054 26.6544 78.1054
Q27.4997 78.1054 28.0559 77.4601
Q28.5888 76.846 28.5888 75.9804
Q28.5888 75.2679 28.3544 74.8241
Q28.0513 74.2616 27.4216 74.2616
Q26.8997 74.2616 26.5669 74.4038
Q26.3028 74.5163 26.0341 74.7898
L25.5028 75.371
Q25.2872 75.5898 25.0638 75.5898
Q24.8684 75.5898 24.7309 75.4507
Q24.595 75.3116 24.595 75.1163
Q24.595 75.0195 24.6731 74.2476
Q24.8388 72.7101 24.8388 72.2257
Q24.8388 72.0554 24.7528 71.8538
Q24.6669 71.6507 24.6669 71.5523
Q24.6669 71.2538 25.1809 71.2538
Q25.2778 71.2538 25.4747 71.271
Q25.6731 71.2882 25.7716 71.2882
Q26.0544 71.2882 26.62 71.2695
Q27.1872 71.2491 27.47 71.2491
Q27.6028 71.2491 27.87 71.2601
Q28.1388 71.2695 28.2716 71.2695
Q28.3638 71.2695 28.5388 71.2335
Q28.7153 71.196 28.8028 71.196
Q28.9934 71.196 29.1403 71.3382
Q29.2872 71.4788 29.2872 71.6648
Q29.2872 72.2116 28.1294 72.2116
Q27.9778 72.2116 27.7481 72.2023
Q27.5184 72.1913 27.47 72.1913
L26.645 72.207
L25.82 72.2304
Q25.82 72.4507 25.6388 73.857
Q26.3075 73.3241 27.4216 73.3241
Q28.495 73.3241 29.0622 74.1648
Q29.5403 74.8773 29.5403 75.9804
Q29.5403 77.2991 28.7684 78.1538
Q27.9684 79.0429 26.6544 79.0429" style="fill:#262626;stroke:#ffffff;stroke-width:4;"/>
      <path d="
M18.2997 78.9257
Q16.8153 78.9257 16.1325 77.5679
Q15.6153 76.5226 15.6153 74.8476
Q15.6153 73.432 16.2888 72.3773
Q17.0841 71.1429 18.4513 71.1429
Q19.7356 71.1429 20.4544 72.2366
Q21.0731 73.1835 21.0731 74.546
Q21.0731 76.7335 20.3794 77.8304
Q19.6872 78.9257 18.2997 78.9257
M18.4466 72.0851
Q17.5388 72.0851 17.0059 73.007
Q16.5622 73.7788 16.5622 74.7695
Q16.5622 76.3773 16.9966 77.1835
Q17.4309 77.9882 18.2997 77.9882
Q19.3356 77.9882 19.7841 76.807
Q20.0966 75.9866 20.0966 74.7257
Q20.0966 73.4023 19.6841 72.7445
Q19.2716 72.0851 18.4466 72.0851
M22.7235 79.1898
Q22.4704 79.1898 22.2938 79.0132
Q22.1188 78.8382 22.1188 78.5835
Q22.1188 78.3351 22.2938 78.157
Q22.4704 77.9788 22.7235 77.9788
Q22.9735 77.9788 23.1516 78.157
Q23.3298 78.3351 23.3298 78.5835
Q23.3298 78.8382 23.1516 79.0132
Q22.9735 79.1898 22.7235 79.1898
M26.6544 79.0429
Q25.2684 79.0429 24.6138 78.0179
Q24.5263 77.8757 24.5263 77.7445
Q24.5263 77.5538 24.6778 77.4148
Q24.8294 77.2757 25.0184 77.2757
Q25.22 77.2757 25.3997 77.4898
Q25.6591 77.8023 25.7903 77.8898
Q26.1075 78.1054 26.6544 78.1054
Q27.4997 78.1054 28.0559 77.4601
Q28.5888 76.846 28.5888 75.9804
Q28.5888 75.2679 28.3544 74.8241
Q28.0513 74.2616 27.4216 74.2616
Q26.8997 74.2616 26.5669 74.4038
Q26.3028 74.5163 26.0341 74.7898
L25.5028 75.371
Q25.2872 75.5898 25.0638 75.5898
Q24.8684 75.5898 24.7309 75.4507
Q24.595 75.3116 24.595 75.1163
Q24.595 75.0195 24.6731 74.2476
Q24.8388 72.7101 24.8388 72.2257
Q24.8388 72.0554 24.7528 71.8538
Q24.6669 71.6507 24.6669 71.5523
Q24.6669 71.2538 25.1809 71.2538
Q25.2778 71.2538 25.4747 71.271
Q25.6731 71.2882 25.7716 71.2882
Q26.0544 71.2882 26.62 71.2695
Q27.1872 71.2491 27.47 71.2491
Q27.6028 71.2491 27.87 71.2601
Q28.1388 71.2695 28.2716 71.2695
Q28.3638 71.2695 28.5388 71.2335
Q28.7153 71.196 28.8028 71.196
Q28.9934 71.196 29.1403 71.3382
Q29.2872 71.4788 29.2872 71.6648
Q29.2872 72.2116 28.1294 72.2116
Q27.9778 72.2116 27.7481 72.2023
Q27.5184 72.1913 27.47 72.1913
L26.645 72.207
L25.82 72.2304
Q25.82 72.4507 25.6388 73.857
Q26.3075 73.3241 27.4216 73.3241
Q28.495 73.3241 29.0622 74.1648
Q29.5403 74.8773 29.5403 75.9804
Q29.5403 77.2991 28.7684 78.1538
Q27.9684 79.0429 26.6544 79.0429" style="fill:#262626;"/>
     </g>
    </g>
    <g id="ytick_7">
     <g id="line2d_31">
      <path d="
M44.2388 20.4145
L36.2388 20.4145" style="fill:#262626;stroke:#ffffff;stroke-width:4;"/>
      <path d="
M44.2388 20.4145
L36.2388 20.4145" style="fill:#262626;stroke:#262626;stroke-width:3.0;"/>
     </g>
     <g id="line2d_32">
      <path d="
M558.096 20.4145
L566.096 20.4145" style="fill:#262626;stroke:#ffffff;stroke-width:4;"/>
      <path d="
M558.096 20.4145
L566.096 20.4145" style="fill:#262626;stroke:#262626;stroke-width:3.0;"/>
     </g>
     <g id="text_16">
      <path d="
M18.5028 23.113
Q17.0184 23.113 16.3356 21.7552
Q15.8184 20.7098 15.8184 19.0348
Q15.8184 17.6192 16.4919 16.5645
Q17.2872 15.3302 18.6544 15.3302
Q19.9388 15.3302 20.6575 16.4239
Q21.2763 17.3708 21.2763 18.7333
Q21.2763 20.9208 20.5825 22.0177
Q19.8903 23.113 18.5028 23.113
M18.6497 16.2723
Q17.7419 16.2723 17.2091 17.1942
Q16.7653 17.9661 16.7653 18.9567
Q16.7653 20.5645 17.1997 21.3708
Q17.6341 22.1755 18.5028 22.1755
Q19.5388 22.1755 19.9872 20.9942
Q20.2997 20.1739 20.2997 18.913
Q20.2997 17.5895 19.8872 16.9317
Q19.4747 16.2723 18.6497 16.2723
M22.9266 23.377
Q22.6735 23.377 22.497 23.2005
Q22.322 23.0255 22.322 22.7708
Q22.322 22.5223 22.497 22.3442
Q22.6735 22.1661 22.9266 22.1661
Q23.1766 22.1661 23.3548 22.3442
Q23.5329 22.5223 23.5329 22.7708
Q23.5329 23.0255 23.3548 23.2005
Q23.1766 23.377 22.9266 23.377
M27.0294 23.2739
Q25.7544 23.2739 25.1544 22.3411
Q24.6559 21.5739 24.6559 20.2958
Q24.6559 17.8833 26.6138 16.1114
L27.0731 15.6473
Q27.4091 15.3239 27.5809 15.3239
Q27.7763 15.3239 27.9216 15.4645
Q28.0684 15.6036 28.0731 15.7927
Q28.0841 15.9692 27.5763 16.4723
L26.5794 17.4442
Q26.1841 17.8442 25.9013 18.6552
Q26.3263 18.4598 26.6434 18.3645
Q26.9606 18.2692 27.1653 18.2692
Q28.3075 18.2692 28.9184 18.8802
Q29.5294 19.4895 29.5294 20.6036
Q29.5294 21.7692 28.87 22.5067
Q28.1809 23.2739 27.0294 23.2739
M27.0294 19.2645
Q26.6091 19.2645 26.2763 19.4114
Q26.1497 19.4708 25.6372 19.788
Q25.6075 20.0458 25.6075 20.2958
Q25.6075 21.1692 25.9013 21.7208
Q26.2716 22.4239 27.0575 22.4239
Q27.795 22.4239 28.2013 21.8973
Q28.5763 21.4083 28.5763 20.6036
Q28.5763 19.9333 28.1903 19.5989
Q27.8059 19.2645 27.0294 19.2645" style="fill:#262626;stroke:#ffffff;stroke-width:4;"/>
      <path d="
M18.5028 23.113
Q17.0184 23.113 16.3356 21.7552
Q15.8184 20.7098 15.8184 19.0348
Q15.8184 17.6192 16.4919 16.5645
Q17.2872 15.3302 18.6544 15.3302
Q19.9388 15.3302 20.6575 16.4239
Q21.2763 17.3708 21.2763 18.7333
Q21.2763 20.9208 20.5825 22.0177
Q19.8903 23.113 18.5028 23.113
M18.6497 16.2723
Q17.7419 16.2723 17.2091 17.1942
Q16.7653 17.9661 16.7653 18.9567
Q16.7653 20.5645 17.1997 21.3708
Q17.6341 22.1755 18.5028 22.1755
Q19.5388 22.1755 19.9872 20.9942
Q20.2997 20.1739 20.2997 18.913
Q20.2997 17.5895 19.8872 16.9317
Q19.4747 16.2723 18.6497 16.2723
M22.9266 23.377
Q22.6735 23.377 22.497 23.2005
Q22.322 23.0255 22.322 22.7708
Q22.322 22.5223 22.497 22.3442
Q22.6735 22.1661 22.9266 22.1661
Q23.1766 22.1661 23.3548 22.3442
Q23.5329 22.5223 23.5329 22.7708
Q23.5329 23.0255 23.3548 23.2005
Q23.1766 23.377 22.9266 23.377
M27.0294 23.2739
Q25.7544 23.2739 25.1544 22.3411
Q24.6559 21.5739 24.6559 20.2958
Q24.6559 17.8833 26.6138 16.1114
L27.0731 15.6473
Q27.4091 15.3239 27.5809 15.3239
Q27.7763 15.3239 27.9216 15.4645
Q28.0684 15.6036 28.0731 15.7927
Q28.0841 15.9692 27.5763 16.4723
L26.5794 17.4442
Q26.1841 17.8442 25.9013 18.6552
Q26.3263 18.4598 26.6434 18.3645
Q26.9606 18.2692 27.1653 18.2692
Q28.3075 18.2692 28.9184 18.8802
Q29.5294 19.4895 29.5294 20.6036
Q29.5294 21.7692 28.87 22.5067
Q28.1809 23.2739 27.0294 23.2739
M27.0294 19.2645
Q26.6091 19.2645 26.2763 19.4114
Q26.1497 19.4708 25.6372 19.788
Q25.6075 20.0458 25.6075 20.2958
Q25.6075 21.1692 25.9013 21.7208
Q26.2716 22.4239 27.0575 22.4239
Q27.795 22.4239 28.2013 21.8973
Q28.5763 21.4083 28.5763 20.6036
Q28.5763 19.9333 28.1903 19.5989
Q27.8059 19.2645 27.0294 19.2645" style="fill:#262626;"/>
     </g>
    </g>
   </g>
   <g id="patch_3">
    <path clip-path="url(#p5ddf0fe08f)" d="
M121.255 355.291
L153.447 355.291
L153.447 333.019
L121.255 333.019
z
" style="fill:#4878cf;opacity:0.4;stroke:#ffffff;stroke-width:4;"/>
    <path clip-path="url(#p5ddf0fe08f)" d="
M121.255 355.291
L153.447 355.291
L153.447 333.019
L121.255 333.019
z
" style="fill:#4878cf;opacity:0.4;stroke:#000000;stroke-width:0.3;"/>
   </g>
   <g id="patch_4">
    <path clip-path="url(#p5ddf0fe08f)" d="
M153.447 355.291
L185.64 355.291
L185.64 344.155
L153.447 344.155
z
" style="fill:#4878cf;opacity:0.4;stroke:#ffffff;stroke-width:4;"/>
    <path clip-path="url(#p5ddf0fe08f)" d="
M153.447 355.291
L185.64 355.291
L185.64 344.155
L153.447 344.155
z
" style="fill:#4878cf;opacity:0.4;stroke:#000000;stroke-width:0.3;"/>
   </g>
   <g id="patch_5">
    <path clip-path="url(#p5ddf0fe08f)" d="
M185.64 355.291
L217.833 355.291
L217.833 277.339
L185.64 277.339
z
" style="fill:#4878cf;opacity:0.4;stroke:#ffffff;stroke-width:4;"/>
    <path clip-path="url(#p5ddf0fe08f)" d="
M185.64 355.291
L217.833 355.291
L217.833 277.339
L185.64 277.339
z
" style="fill:#4878cf;opacity:0.4;stroke:#000000;stroke-width:0.3;"/>
   </g>
   <g id="patch_6">
    <path clip-path="url(#p5ddf0fe08f)" d="
M217.833 355.291
L250.025 355.291
L250.025 154.843
L217.833 154.843
z
" style="fill:#4878cf;opacity:0.4;stroke:#ffffff;stroke-width:4;"/>
    <path clip-path="url(#p5ddf0fe08f)" d="
M217.833 355.291
L250.025 355.291
L250.025 154.843
L217.833 154.843
z
" style="fill:#4878cf;opacity:0.4;stroke:#000000;stroke-width:0.3;"/>
   </g>
   <g id="patch_7">
    <path clip-path="url(#p5ddf0fe08f)" d="
M250.025 355.291
L282.218 355.291
L282.218 154.843
L250.025 154.843
z
" style="fill:#4878cf;opacity:0.4;stroke:#ffffff;stroke-width:4;"/>
    <path clip-path="url(#p5ddf0fe08f)" d="
M250.025 355.291
L282.218 355.291
L282.218 154.843
L250.025 154.843
z
" style="fill:#4878cf;opacity:0.4;stroke:#000000;stroke-width:0.3;"/>
   </g>
   <g id="patch_8">
    <path clip-path="url(#p5ddf0fe08f)" d="
M282.218 355.291
L314.411 355.291
L314.411 43.4832
L282.218 43.4832
z
" style="fill:#4878cf;opacity:0.4;stroke:#ffffff;stroke-width:4;"/>
    <path clip-path="url(#p5ddf0fe08f)" d="
M282.218 355.291
L314.411 355.291
L314.411 43.4832
L282.218 43.4832
z
" style="fill:#4878cf;opacity:0.4;stroke:#000000;stroke-width:0.3;"/>
   </g>
   <g id="patch_9">
    <path clip-path="url(#p5ddf0fe08f)" d="
M314.411 355.291
L346.603 355.291
L346.603 288.475
L314.411 288.475
z
" style="fill:#4878cf;opacity:0.4;stroke:#ffffff;stroke-width:4;"/>
    <path clip-path="url(#p5ddf0fe08f)" d="
M314.411 355.291
L346.603 355.291
L346.603 288.475
L314.411 288.475
z
" style="fill:#4878cf;opacity:0.4;stroke:#000000;stroke-width:0.3;"/>
   </g>
   <g id="patch_10">
    <path clip-path="url(#p5ddf0fe08f)" d="
M346.603 355.291
L378.796 355.291
L378.796 243.931
L346.603 243.931
z
" style="fill:#4878cf;opacity:0.4;stroke:#ffffff;stroke-width:4;"/>
    <path clip-path="url(#p5ddf0fe08f)" d="
M346.603 355.291
L378.796 355.291
L378.796 243.931
L346.603 243.931
z
" style="fill:#4878cf;opacity:0.4;stroke:#000000;stroke-width:0.3;"/>
   </g>
   <g id="patch_11">
    <path clip-path="url(#p5ddf0fe08f)" d="
M378.796 355.291
L410.989 355.291
L410.989 299.611
L378.796 299.611
z
" style="fill:#4878cf;opacity:0.4;stroke:#ffffff;stroke-width:4;"/>
    <path clip-path="url(#p5ddf0fe08f)" d="
M378.796 355.291
L410.989 355.291
L410.989 299.611
L378.796 299.611
z
" style="fill:#4878cf;opacity:0.4;stroke:#000000;stroke-width:0.3;"/>
   </g>
   <g id="patch_12">
    <path clip-path="url(#p5ddf0fe08f)" d="
M410.989 355.291
L443.181 355.291
L443.181 333.019
L410.989 333.019
z
" style="fill:#4878cf;opacity:0.4;stroke:#ffffff;stroke-width:4;"/>
    <path clip-path="url(#p5ddf0fe08f)" d="
M410.989 355.291
L443.181 355.291
L443.181 333.019
L410.989 333.019
z
" style="fill:#4878cf;opacity:0.4;stroke:#000000;stroke-width:0.3;"/>
   </g>
   <g id="patch_13">
    <path clip-path="url(#p5ddf0fe08f)" d="
M443.181 355.291
L475.374 355.291
L475.374 321.883
L443.181 321.883
z
" style="fill:#4878cf;opacity:0.4;stroke:#ffffff;stroke-width:4;"/>
    <path clip-path="url(#p5ddf0fe08f)" d="
M443.181 355.291
L475.374 355.291
L475.374 321.883
L443.181 321.883
z
" style="fill:#4878cf;opacity:0.4;stroke:#000000;stroke-width:0.3;"/>
   </g>
   <g id="line2d_33">
    <path clip-path="url(#p5ddf0fe08f)" d="
M49.5881 355.156
L61.3389 354.995
L69.1728 354.668
L77.0067 354.069
L84.8406 353.109
L92.6745 351.74
L100.508 350.011
L120.093 345.318
L127.927 343.803
L139.678 341.761
L143.595 340.911
L147.512 339.821
L151.429 338.379
L155.346 336.465
L159.263 333.963
L163.18 330.769
L167.097 326.797
L171.014 321.987
L174.93 316.313
L178.847 309.777
L182.764 302.421
L186.681 294.312
L190.598 285.547
L194.515 276.245
L202.349 256.566
L214.1 226.508
L218.017 216.88
L221.934 207.631
L225.851 198.837
L229.768 190.544
L233.685 182.771
L237.602 175.502
L241.519 168.694
L245.436 162.283
L249.353 156.194
L253.269 150.356
L261.103 139.271
L265.02 134.056
L268.937 129.184
L272.854 124.835
L276.771 121.253
L280.688 118.728
L284.605 117.564
L288.522 118.044
L292.439 120.386
L296.356 124.711
L300.273 131.011
L304.19 139.14
L308.107 148.818
L312.024 159.661
L327.692 205.691
L331.608 215.949
L335.525 225.267
L339.442 233.621
L343.359 241.078
L347.276 247.766
L351.193 253.836
L355.11 259.439
L359.027 264.693
L362.944 269.679
L366.861 274.439
L370.778 278.982
L374.695 283.298
L378.612 287.379
L382.529 291.223
L386.446 294.849
L394.28 301.601
L409.947 314.378
L417.781 320.588
L421.698 323.499
L425.615 326.18
L429.532 328.555
L433.449 330.564
L437.366 332.173
L441.283 333.384
L445.2 334.232
L449.117 334.785
L456.951 335.404
L460.868 335.689
L464.785 336.092
L468.702 336.691
L472.619 337.529
L476.536 338.621
L480.453 339.945
L484.369 341.456
L500.037 348.006
L503.954 349.442
L507.871 350.708
L511.788 351.786
L515.705 352.676
L519.622 353.387
L523.539 353.938
L527.456 354.353
L535.29 354.866
L543.124 355.097
L547.041 355.144
L547.041 355.144" style="fill:none;stroke:#ffffff;stroke-linecap:round;stroke-width:4;"/>
    <path clip-path="url(#p5ddf0fe08f)" d="
M49.5881 355.156
L61.3389 354.995
L69.1728 354.668
L77.0067 354.069
L84.8406 353.109
L92.6745 351.74
L100.508 350.011
L120.093 345.318
L127.927 343.803
L139.678 341.761
L143.595 340.911
L147.512 339.821
L151.429 338.379
L155.346 336.465
L159.263 333.963
L163.18 330.769
L167.097 326.797
L171.014 321.987
L174.93 316.313
L178.847 309.777
L182.764 302.421
L186.681 294.312
L190.598 285.547
L194.515 276.245
L202.349 256.566
L214.1 226.508
L218.017 216.88
L221.934 207.631
L225.851 198.837
L229.768 190.544
L233.685 182.771
L237.602 175.502
L241.519 168.694
L245.436 162.283
L249.353 156.194
L253.269 150.356
L261.103 139.271
L265.02 134.056
L268.937 129.184
L272.854 124.835
L276.771 121.253
L280.688 118.728
L284.605 117.564
L288.522 118.044
L292.439 120.386
L296.356 124.711
L300.273 131.011
L304.19 139.14
L308.107 148.818
L312.024 159.661
L327.692 205.691
L331.608 215.949
L335.525 225.267
L339.442 233.621
L343.359 241.078
L347.276 247.766
L351.193 253.836
L355.11 259.439
L359.027 264.693
L362.944 269.679
L366.861 274.439
L370.778 278.982
L374.695 283.298
L378.612 287.379
L382.529 291.223
L386.446 294.849
L394.28 301.601
L409.947 314.378
L417.781 320.588
L421.698 323.499
L425.615 326.18
L429.532 328.555
L433.449 330.564
L437.366 332.173
L441.283 333.384
L445.2 334.232
L449.117 334.785
L456.951 335.404
L460.868 335.689
L464.785 336.092
L468.702 336.691
L472.619 337.529
L476.536 338.621
L480.453 339.945
L484.369 341.456
L500.037 348.006
L503.954 349.442
L507.871 350.708
L511.788 351.786
L515.705 352.676
L519.622 353.387
L523.539 353.938
L527.456 354.353
L535.29 354.866
L543.124 355.097
L547.041 355.144
L547.041 355.144" style="fill:none;stroke:#4878cf;stroke-linecap:round;stroke-width:2.0;"/>
   </g>
   <g id="patch_14">
    <path d="
M44.2387 20.4145
L558.096 20.4145" style="fill:none;stroke:#ffffff;stroke-width:4;"/>
    <path d="
M44.2387 20.4145
L558.096 20.4145" style="fill:none;stroke:#262626;stroke-width:1.5;"/>
   </g>
   <g id="patch_15">
    <path d="
M558.096 355.291
L558.096 20.4145" style="fill:none;stroke:#ffffff;stroke-width:4;"/>
    <path d="
M558.096 355.291
L558.096 20.4145" style="fill:none;stroke:#262626;stroke-width:1.5;"/>
   </g>
   <g id="patch_16">
    <path d="
M44.2387 355.291
L558.096 355.291" style="fill:none;stroke:#ffffff;stroke-width:4;"/>
    <path d="
M44.2387 355.291
L558.096 355.291" style="fill:none;stroke:#262626;stroke-width:1.5;"/>
   </g>
   <g id="patch_17">
    <path d="
M44.2388 355.291
L44.2388 20.4145" style="fill:none;stroke:#ffffff;stroke-width:4;"/>
    <path d="
M44.2388 355.291
L44.2388 20.4145" style="fill:none;stroke:#262626;stroke-width:1.5;"/>
   </g>
  </g>
 </g>
 <defs>
  <clipPath id="p5ddf0fe08f">
   <rect height="334.87640625" width="513.856875" x="44.23875" y="20.41453125"/>
  </clipPath>
 </defs>
</svg>
